<svg id="Capa_1" enable-background="new 0 0 512 512" height="512" viewBox="0 0 512 512" width="512" xmlns="http://www.w3.org/2000/svg"><g><circle cx="136" cy="275" r="25"/><path d="m341 211.711v139.144l170 63.75v-160.394z"/><path d="m271 213.423v100.787c0 6.253 3.879 11.849 9.733 14.045l30.267 11.35v-135.394l-21.362-5.341c-9.467-2.366-18.638 4.794-18.638 14.553z"/><path d="m270.199 356.345c-17.563-6.587-29.199-23.377-29.199-42.135v-100.786c0-29.276 27.513-50.757 55.914-43.656l213.732 53.432c-3.108-58.218-27.251-112.515-68.791-154.055-44.589-44.589-103.873-69.145-166.931-69.145-93.538 0-185.686 24.912-266.482 72.043-4.018 2.344-6.721 6.419-7.318 11.032s.98 9.242 4.27 12.531l32.052 32.052c-23.877 45.549-36.446 96.456-36.446 147.965v50.408c0 42.629 28.707 80.296 69.81 91.599l332.038 91.311c7.383 2.031 15.01 3.06 22.667 3.06 40.499 0 74.487-28.319 83.262-66.189zm-134.199-26.345c-30.327 0-55-24.673-55-55s24.673-55 55-55 55 24.673 55 55-24.673 55-55 55z"/></g></svg>